<?xml version="1.0" standalone="no"?>
<!DOCTYPE svg PUBLIC "-//W3C//DTD SVG 20010904//EN"
 "http://www.w3.org/TR/2001/REC-SVG-20010904/DTD/svg10.dtd">
<svg version="1.0" xmlns="http://www.w3.org/2000/svg"
 width="235.000000pt" height="180.000000pt" viewBox="0 0 235.000000 180.000000"
 preserveAspectRatio="xMidYMid meet">
<metadata>
Created by potrace 1.15, written by Peter Selinger 2001-2017
</metadata>
<g transform="translate(0.000000,180.000000) scale(0.100000,-0.100000)"
fill="#000000" stroke="none">
<path d="M1880 1589 l-405 -189 -17 23 c-23 30 -38 103 -38 188 l0 70 -57 -47
c-32 -25 -69 -64 -83 -85 -14 -21 -30 -39 -36 -39 -5 0 -26 12 -45 26 -65 49
-150 84 -207 84 -53 0 -130 -28 -153 -56 -15 -19 -11 -18 36 6 56 28 148 27
195 -2 l35 -22 -70 -8 c-65 -8 -108 -28 -92 -44 4 -4 47 -8 96 -8 97 -1 105
-9 46 -46 -47 -29 -81 -25 -181 21 -161 74 -287 111 -394 115 l-95 4 105 -25
c136 -32 201 -59 236 -97 32 -34 30 -34 -41 4 -72 37 -156 60 -212 56 l-48 -3
55 -13 c52 -12 127 -48 118 -57 -2 -2 -21 0 -43 5 -51 12 -182 13 -189 1 -3
-4 34 -11 83 -14 50 -3 105 -13 127 -23 61 -27 20 -28 -105 -4 -60 12 -134 20
-163 18 l-53 -3 55 -17 c30 -10 86 -36 124 -57 l70 -39 -35 -6 c-19 -3 -67 -7
-107 -9 -40 -3 -78 -9 -83 -14 -5 -5 28 -7 87 -5 90 4 96 3 92 -14 -1 -11 -24
-29 -51 -43 -42 -21 -63 -24 -155 -24 -59 0 -132 3 -162 6 l-55 6 45 -15 c25
-8 74 -18 110 -22 l65 -7 -58 -39 c-32 -21 -62 -47 -68 -58 -12 -22 -14 -23
55 20 52 32 141 62 184 62 l36 0 -29 -29 c-37 -39 -154 -96 -235 -115 -151
-35 -152 -35 -45 -32 55 2 109 6 120 10 11 4 0 -10 -25 -31 -86 -73 -158 -145
-186 -184 -39 -57 -24 -57 20 1 30 39 113 114 194 174 7 5 -6 -26 -29 -68 -23
-42 -39 -79 -37 -81 3 -3 33 31 67 74 82 105 126 132 159 99 28 -28 9 -55
-151 -216 l-162 -165 79 53 c137 91 236 122 327 100 61 -15 97 -43 191 -152
126 -143 236 -296 350 -481 48 -79 49 -80 44 -42 -3 22 -8 110 -12 195 -9 220
17 330 100 426 l33 38 70 -32 c38 -18 76 -32 84 -32 8 0 64 -38 124 -85 61
-47 129 -98 152 -113 29 -18 41 -33 40 -46 -1 -14 13 -30 47 -53 55 -38 119
-44 162 -16 33 21 77 86 99 148 10 28 22 55 27 62 10 13 -43 96 -217 339 -95
133 -104 150 -110 202 -9 79 -8 78 -70 117 -30 20 -55 41 -55 48 0 7 12 19 28
28 15 9 101 67 192 129 91 62 242 164 335 228 179 121 195 133 180 131 -6 -1
-192 -86 -415 -190z"/>
</g>
</svg>
